<svg xmlns="http://www.w3.org/2000/svg" viewBox="0 0 489.9 445">
  <title>logo-pink</title>
  <g id="Layer_2" data-name="Layer 2">
    <g id="Layer_1-2" data-name="Layer 1">
      <g>
        <path d="M307,445H485a5.1,5.1,0,0,0,4.3-7.5l-36.2-71.3L395.5,252.5l-13.2-26.1A5,5,0,0,0,378,224H142l4.3,7.5,40.5-75.7L251.5,35.2,266.3,7.5h-8.6L312,113.4l7.7,15.1c2.9,5.7,11.6.7,8.6-5L274,17.5,266.3,2.4c-1.7-3.3-6.9-3.2-8.6,0L217.2,78.1,152.5,198.7l-14.9,27.7A5.1,5.1,0,0,0,142,234H378l-4.3-2.5,36.2,71.3,57.6,113.6,13.2,26.1L485,435H307c-6.4,0-6.4,10,0,10Z" fill="#e65b6c"/>
        <path d="M204,435H26l4.3,7.5.5-.8c3.2-5.6-5.5-10.7-8.6-5l-.5.8,8.6,5c20.2-36,40.1-72.1,60.5-108,3.2-5.6-5.4-10.6-8.6-5-20.4,35.9-40.3,72-60.5,108-3.2,5.6,5.5,10.7,8.6,5l.5-.8c3.2-5.6-5.5-10.7-8.6-5l-.5.8A5,5,0,0,0,26,445H204c6.4,0,6.4-10,0-10Z" fill="#e65b6c"/>
      </g>
      <g>
        <path d="M286,445H464a5.1,5.1,0,0,0,4.3-7.5l-36.2-71.3L374.5,252.5l-13.2-26.1A5,5,0,0,0,357,224H121l4.3,7.5,40.5-75.7L230.5,35.2,245.3,7.5h-8.6L291,113.4l7.7,15.1c2.9,5.7,11.6.7,8.6-5L253,17.5,245.3,2.4c-1.7-3.3-6.9-3.2-8.6,0L196.2,78.1,131.5,198.7l-14.9,27.7A5.1,5.1,0,0,0,121,234H357l-4.3-2.5,36.2,71.3,57.6,113.6,13.2,26.1L464,435H286c-6.4,0-6.4,10,0,10Z" fill="#e65b6c"/>
        <path d="M183,435H5l4.3,7.5.5-.8c3.2-5.6-5.5-10.7-8.6-5l-.5.8,8.6,5c20.2-36,40.1-72.1,60.5-108,3.2-5.6-5.4-10.6-8.6-5-20.4,35.9-40.3,72-60.5,108-3.2,5.6,5.5,10.7,8.6,5l.5-.8c3.2-5.6-5.5-10.7-8.6-5l-.5.8A5,5,0,0,0,5,445H183c6.4,0,6.4-10,0-10Z" fill="#e65b6c"/>
      </g>
    </g>
  </g>
</svg>
