<svg xmlns="http://www.w3.org/2000/svg" width="1141.5" height="542.69" viewBox="0 0 1141.5 542.69"><title>product-launch</title><g id="Layer_2" data-name="Layer 2"><g id="product-launch"><line id="line" x1="1140.5" y1="319.76" y2="319.76" fill="none" stroke="#444" stroke-miterlimit="10" stroke-width="2"/><circle id="research-dot" cx="136.75" cy="319.66" r="8.07" fill="#e65b6c" stroke="#fff" stroke-miterlimit="10"/><text transform="translate(72.97 367.46)" font-size="23" fill="#444" font-family="Poppins-SemiBold, Poppins" font-weight="700">research &amp;<tspan x="0" y="27.6">discovery</tspan></text><circle id="design-dot" cx="425.75" cy="319.66" r="8.07" fill="#e65b6c" stroke="#fff" stroke-miterlimit="10"/><text transform="translate(374.07 367.46)" font-size="23" fill="#444" font-family="Poppins-SemiBold, Poppins" font-weight="700">design &amp;<tspan x="0" y="27.6">usability</tspan></text><circle id="development-dot" cx="714.75" cy="319.66" r="8.07" fill="#e65b6c" stroke="#fff" stroke-miterlimit="10"/><text transform="translate(635.33 367.46)" font-size="23" fill="#444" font-family="Poppins-SemiBold, Poppins" font-weight="700">development</text><circle id="marketing-dot" cx="1003.75" cy="319.66" r="8.07" fill="#e65b6c" stroke="#fff" stroke-miterlimit="10"/><text transform="translate(941.46 367.46)" font-size="23" fill="#444" font-family="Poppins-SemiBold, Poppins" font-weight="700">marketing</text><path id="research-hump" d="M.5,299.21S67.8,60.7,175.26,157.12,358.7,299.21,358.7,299.21Z" fill="#0b3954" opacity="0.5"/><path id="design-hump" d="M176.79,299.21s136.71-432,355-257.35S904.43,299.21,904.43,299.21Z" fill="#fb0" opacity="0.59"/><path id="development-hump" d="M1028.08,299.21s-75.84-246-196.94-146.54S624.41,299.21,624.41,299.21Z" fill="#f8b2af" opacity="0.85"/><g id="research-details"><text transform="translate(0.92 448.11)" font-size="16" font-family="Poppins-Regular, Poppins">5 yrs cognitive science research (Northeastern, Harvard, UC Berkeley)</text><text transform="translate(0.92 477.68)" font-size="16" font-family="Poppins-Regular, Poppins">2 yrs research manager (UC Berkeley)</text><text transform="translate(0.92 506.1)" font-size="16" font-family="Poppins-Regular, Poppins">2 peer-reviewed publications</text><text transform="translate(0.92 535.66)" font-size="16" font-family="Poppins-Regular, Poppins">4 conference posters, 1 conference talk</text></g><g id="design-details"><text transform="translate(306.62 449)" font-size="16" font-family="Poppins-Regular, Poppins">Masters of HCI &amp; Design (UW)</text><text transform="translate(306.62 478)" font-size="16" font-family="Poppins-Regular, Poppins">UX Designer (UC Berkeley)</text><text transform="translate(306.62 507)" font-size="16" font-family="Poppins-Regular, Poppins">6 projects (2 professional, 4 student)</text></g><g id="development-details"><text transform="translate(569.56 449)" font-size="16" font-family="Poppins-Regular, Poppins">Immersive Engineering Bootcamp</text><text transform="translate(569.56 479.36)" font-size="16" font-family="Poppins-Regular, Poppins">3 projects (1 professional, 2 student)</text><text transform="translate(569.56 507.43)" font-size="16" font-family="Poppins-Regular, Poppins">3 hackacthons, won awards at 2</text></g><g id="marketing-group"><text transform="translate(777.51 479.43)" font-size="16" font-family="Poppins-Regular, Poppins">placed in 2 business plan competitions (UW)</text><text transform="translate(777.51 449.43)" font-size="16" font-family="Poppins-Regular, Poppins">won $15k in video ad competitions in 2016</text></g><path id="marketing-hump" d="M1140.5,299.21s-55-144.1-142.85-85.84-149.95,85.84-149.95,85.84Z" fill="#c6d9d8" opacity="0.59"/><rect id="research-area" x="0.5" width="218" height="536" fill="none"/><rect id="design-area" x="218.5" width="541" height="536" fill="none"/><rect id="development-area" x="757.5" width="237" height="536" fill="none"/><rect id="marketing-area" x="941.5" width="200" height="536" fill="none"/></g></g></svg>